<svg width="273" height="75" viewBox="0 0 273 75" fill="none" xmlns="http://www.w3.org/2000/svg">
<path d="M25.2324 72.904C39.1679 72.904 50.4648 61.6071 50.4648 47.6716C50.4648 33.7361 39.1679 22.4392 25.2324 22.4392C11.2969 22.4392 0 33.7361 0 47.6716C0 61.6071 11.2969 72.904 25.2324 72.904Z" fill="#46E0FE"/>
<path d="M40.6414 50.5608C54.5769 50.5608 65.8738 39.2639 65.8738 25.3284C65.8738 11.3929 54.5769 0.0960083 40.6414 0.0960083C26.7059 0.0960083 15.409 11.3929 15.409 25.3284C15.409 39.2639 26.7059 50.5608 40.6414 50.5608Z" fill="#1F55D7"/>
<path d="M59.9028 62.5028C63.2005 62.5028 65.8738 59.8295 65.8738 56.5318C65.8738 53.2341 63.2005 50.5608 59.9028 50.5608C56.6051 50.5608 53.9318 53.2341 53.9318 56.5318C53.9318 59.8295 56.6051 62.5028 59.9028 62.5028Z" fill="#FDCC02"/>
<path d="M80.1605 51V14.6364H104.237V20.9751H87.8487V29.6399H102.639V35.9787H87.8487V51H80.1605Z" fill="white"/>
<path d="M109.267 51V23.7273H116.83V51H109.267ZM113.066 20.2117C111.942 20.2117 110.977 19.8388 110.172 19.093C109.379 18.3355 108.982 17.4299 108.982 16.3764C108.982 15.3348 109.379 14.4411 110.172 13.6953C110.977 12.9377 111.942 12.559 113.066 12.559C114.191 12.559 115.15 12.9377 115.943 13.6953C116.748 14.4411 117.15 15.3348 117.15 16.3764C117.15 17.4299 116.748 18.3355 115.943 19.093C115.15 19.8388 114.191 20.2117 113.066 20.2117Z" fill="white"/>
<path d="M130.453 35.233V51H122.89V23.7273H130.098V28.5391H130.418C131.022 26.9529 132.034 25.6982 133.454 24.7749C134.875 23.8397 136.597 23.3722 138.621 23.3722C140.515 23.3722 142.166 23.7865 143.575 24.6151C144.984 25.4437 146.078 26.6274 146.86 28.1662C147.641 29.6932 148.032 31.5161 148.032 33.635V51H140.468V34.9844C140.48 33.3153 140.053 32.0133 139.189 31.0781C138.325 30.1312 137.136 29.6577 135.62 29.6577C134.602 29.6577 133.703 29.8767 132.922 30.3146C132.152 30.7526 131.548 31.3918 131.11 32.2323C130.684 33.0609 130.465 34.0611 130.453 35.233Z" fill="white"/>
<path d="M162.32 51L151.916 14.6364H160.314L166.333 39.9027H166.635L173.276 14.6364H180.467L187.09 39.956H187.409L193.428 14.6364H201.827L191.422 51H183.929L177.004 27.2251H176.72L169.813 51H162.32Z" fill="white"/>
<path d="M205.8 51V23.7273H213.364V51H205.8ZM209.599 20.2117C208.475 20.2117 207.51 19.8388 206.705 19.093C205.912 18.3355 205.516 17.4299 205.516 16.3764C205.516 15.3348 205.912 14.4411 206.705 13.6953C207.51 12.9377 208.475 12.559 209.599 12.559C210.724 12.559 211.683 12.9377 212.476 13.6953C213.281 14.4411 213.683 15.3348 213.683 16.3764C213.683 17.4299 213.281 18.3355 212.476 19.093C211.683 19.8388 210.724 20.2117 209.599 20.2117Z" fill="white"/>
<path d="M242.115 31.5043L235.19 31.9304C235.071 31.3385 234.817 30.8059 234.426 30.3324C234.036 29.8471 233.521 29.4624 232.882 29.1783C232.254 28.8823 231.503 28.7344 230.627 28.7344C229.455 28.7344 228.466 28.983 227.661 29.4801C226.856 29.9654 226.454 30.6165 226.454 31.4332C226.454 32.0843 226.714 32.6347 227.235 33.0845C227.756 33.5343 228.65 33.8954 229.916 34.1676L234.852 35.1619C237.504 35.7064 239.481 36.5824 240.783 37.7898C242.085 38.9972 242.736 40.5833 242.736 42.5483C242.736 44.3357 242.209 45.9041 241.156 47.2536C240.114 48.603 238.682 49.6565 236.859 50.4141C235.048 51.1598 232.959 51.5327 230.591 51.5327C226.981 51.5327 224.104 50.781 221.962 49.2777C219.831 47.7626 218.582 45.7029 218.215 43.0987L225.655 42.7081C225.88 43.809 226.424 44.6494 227.289 45.2294C228.153 45.7976 229.259 46.0817 230.609 46.0817C231.935 46.0817 233 45.8272 233.805 45.3182C234.622 44.7974 235.036 44.1286 235.048 43.3118C235.036 42.6252 234.746 42.063 234.178 41.625C233.61 41.1752 232.734 40.8319 231.55 40.5952L226.827 39.6541C224.164 39.1215 222.181 38.1982 220.879 36.8842C219.588 35.5703 218.943 33.8954 218.943 31.8594C218.943 30.1075 219.417 28.5983 220.364 27.3317C221.323 26.0651 222.666 25.0886 224.394 24.402C226.134 23.7154 228.17 23.3722 230.502 23.3722C233.947 23.3722 236.658 24.1001 238.634 25.5561C240.623 27.0121 241.783 28.9948 242.115 31.5043Z" fill="white"/>
<path d="M259.928 51.5327C257.123 51.5327 254.708 50.9645 252.684 49.8281C250.671 48.6799 249.121 47.0582 248.032 44.9631C246.943 42.8561 246.398 40.3644 246.398 37.4879C246.398 34.6825 246.943 32.2204 248.032 30.1016C249.121 27.9827 250.654 26.3314 252.63 25.1477C254.619 23.964 256.951 23.3722 259.626 23.3722C261.425 23.3722 263.1 23.6622 264.651 24.2422C266.213 24.8104 267.575 25.6686 268.735 26.8168C269.907 27.965 270.818 29.4091 271.469 31.1492C272.12 32.8774 272.446 34.9015 272.446 37.2216V39.299H249.417V34.6115H265.326C265.326 33.5225 265.089 32.5578 264.615 31.7173C264.142 30.8769 263.485 30.2199 262.645 29.7465C261.816 29.2611 260.851 29.0185 259.75 29.0185C258.602 29.0185 257.584 29.2848 256.696 29.8175C255.82 30.3383 255.134 31.0426 254.637 31.9304C254.14 32.8064 253.885 33.7829 253.873 34.8601V39.3168C253.873 40.6662 254.122 41.8322 254.619 42.8146C255.128 43.7971 255.844 44.5547 256.767 45.0874C257.691 45.62 258.786 45.8864 260.052 45.8864C260.893 45.8864 261.662 45.768 262.36 45.5313C263.059 45.2945 263.657 44.9394 264.154 44.4659C264.651 43.9924 265.03 43.4124 265.29 42.7259L272.286 43.1875C271.931 44.8684 271.203 46.3362 270.102 47.5909C269.013 48.8338 267.604 49.8045 265.876 50.5028C264.16 51.1894 262.177 51.5327 259.928 51.5327Z" fill="white"/>
<path d="M80.9482 71V60.0909H83.2546V64.9009H83.3984L87.3242 60.0909H90.0888L86.0405 64.9755L90.1367 71H87.3775L84.3892 66.5149L83.2546 67.8999V71H80.9482Z" fill="white"/>
<path d="M93.5165 66.2699V71H91.2473V62.8182H93.41V64.2617H93.5059C93.687 63.7859 93.9906 63.4095 94.4167 63.1325C94.8429 62.8519 95.3596 62.7117 95.9668 62.7117C96.535 62.7117 97.0304 62.8359 97.4529 63.0845C97.8755 63.3331 98.204 63.6882 98.4384 64.1499C98.6728 64.608 98.7899 65.1548 98.7899 65.7905V71H96.5208V66.1953C96.5243 65.6946 96.3965 65.304 96.1373 65.0234C95.878 64.7394 95.5211 64.5973 95.0666 64.5973C94.7612 64.5973 94.4913 64.663 94.2569 64.7944C94.0261 64.9258 93.845 65.1176 93.7136 65.3697C93.5858 65.6183 93.5201 65.9183 93.5165 66.2699Z" fill="white"/>
<path d="M104.275 71.1598C103.448 71.1598 102.732 70.984 102.128 70.6325C101.528 70.2774 101.065 69.7837 100.738 69.1516C100.411 68.516 100.248 67.7791 100.248 66.9411C100.248 66.0959 100.411 65.3573 100.738 64.7252C101.065 64.0895 101.528 63.5959 102.128 63.2443C102.732 62.8892 103.448 62.7117 104.275 62.7117C105.103 62.7117 105.816 62.8892 106.416 63.2443C107.02 63.5959 107.485 64.0895 107.812 64.7252C108.139 65.3573 108.302 66.0959 108.302 66.9411C108.302 67.7791 108.139 68.516 107.812 69.1516C107.485 69.7837 107.02 70.2774 106.416 70.6325C105.816 70.984 105.103 71.1598 104.275 71.1598ZM104.286 69.402C104.662 69.402 104.976 69.2955 105.229 69.0824C105.481 68.8658 105.671 68.571 105.799 68.1982C105.93 67.8253 105.996 67.4009 105.996 66.9251C105.996 66.4492 105.93 66.0249 105.799 65.652C105.671 65.2791 105.481 64.9844 105.229 64.7678C104.976 64.5511 104.662 64.4428 104.286 64.4428C103.906 64.4428 103.586 64.5511 103.327 64.7678C103.071 64.9844 102.878 65.2791 102.746 65.652C102.619 66.0249 102.555 66.4492 102.555 66.9251C102.555 67.4009 102.619 67.8253 102.746 68.1982C102.878 68.571 103.071 68.8658 103.327 69.0824C103.586 69.2955 103.906 69.402 104.286 69.402Z" fill="white"/>
<path d="M111.187 71L108.96 62.8182H111.256L112.524 68.3153H112.598L113.919 62.8182H116.172L117.515 68.2834H117.584L118.83 62.8182H121.121L118.9 71H116.497L115.091 65.8544H114.99L113.584 71H111.187Z" fill="white"/>
<path d="M127.204 74.0682C126.916 74.0682 126.646 74.0451 126.394 73.9989C126.146 73.9563 125.94 73.9013 125.776 73.8338L126.288 72.1399C126.554 72.2216 126.794 72.266 127.007 72.2731C127.223 72.2802 127.41 72.2305 127.566 72.1239C127.726 72.0174 127.856 71.8363 127.955 71.5806L128.088 71.2344L125.153 62.8182H127.54L129.233 68.8267H129.319L131.029 62.8182H133.431L130.251 71.8842C130.098 72.3246 129.89 72.7081 129.628 73.0348C129.368 73.3651 129.04 73.619 128.642 73.7965C128.244 73.9776 127.765 74.0682 127.204 74.0682Z" fill="white"/>
<path d="M138.025 71.1598C137.198 71.1598 136.482 70.984 135.878 70.6325C135.278 70.2774 134.815 69.7837 134.488 69.1516C134.161 68.516 133.998 67.7791 133.998 66.9411C133.998 66.0959 134.161 65.3573 134.488 64.7252C134.815 64.0895 135.278 63.5959 135.878 63.2443C136.482 62.8892 137.198 62.7117 138.025 62.7117C138.853 62.7117 139.566 62.8892 140.166 63.2443C140.77 63.5959 141.235 64.0895 141.562 64.7252C141.889 65.3573 142.052 66.0959 142.052 66.9411C142.052 67.7791 141.889 68.516 141.562 69.1516C141.235 69.7837 140.77 70.2774 140.166 70.6325C139.566 70.984 138.853 71.1598 138.025 71.1598ZM138.036 69.402C138.412 69.402 138.726 69.2955 138.979 69.0824C139.231 68.8658 139.421 68.571 139.549 68.1982C139.68 67.8253 139.746 67.4009 139.746 66.9251C139.746 66.4492 139.68 66.0249 139.549 65.652C139.421 65.2791 139.231 64.9844 138.979 64.7678C138.726 64.5511 138.412 64.4428 138.036 64.4428C137.656 64.4428 137.336 64.5511 137.077 64.7678C136.821 64.9844 136.628 65.2791 136.496 65.652C136.369 66.0249 136.305 66.4492 136.305 66.9251C136.305 67.4009 136.369 67.8253 136.496 68.1982C136.628 68.571 136.821 68.8658 137.077 69.0824C137.336 69.2955 137.656 69.402 138.036 69.402Z" fill="white"/>
<path d="M148.774 67.5163V62.8182H151.044V71H148.865V69.5139H148.78C148.595 69.9933 148.288 70.3786 147.858 70.6698C147.432 70.9609 146.912 71.1065 146.298 71.1065C145.751 71.1065 145.269 70.9823 144.854 70.7337C144.438 70.4851 144.114 70.1318 143.879 69.6737C143.648 69.2156 143.531 68.6669 143.528 68.0277V62.8182H145.797V67.6229C145.8 68.1058 145.93 68.4876 146.186 68.7681C146.441 69.0487 146.784 69.1889 147.214 69.1889C147.487 69.1889 147.743 69.1268 147.981 69.0025C148.219 68.8747 148.41 68.6864 148.556 68.4379C148.705 68.1893 148.778 67.8821 148.774 67.5163Z" fill="white"/>
<path d="M152.859 71V62.8182H155.059V64.2458H155.144C155.293 63.7379 155.543 63.3544 155.895 63.0952C156.246 62.8324 156.651 62.701 157.109 62.701C157.223 62.701 157.346 62.7081 157.477 62.7223C157.608 62.7365 157.724 62.756 157.823 62.7809V64.7944C157.717 64.7624 157.569 64.734 157.381 64.7092C157.193 64.6843 157.021 64.6719 156.864 64.6719C156.531 64.6719 156.232 64.7447 155.969 64.8903C155.71 65.0323 155.504 65.2312 155.352 65.4869C155.202 65.7426 155.128 66.0373 155.128 66.3711V71H152.859Z" fill="white"/>
<path d="M162.468 71V62.8182H164.631V64.2617H164.727C164.897 63.7823 165.181 63.4041 165.579 63.1271C165.977 62.8502 166.452 62.7117 167.006 62.7117C167.567 62.7117 168.045 62.8519 168.439 63.1325C168.833 63.4095 169.096 63.7859 169.228 64.2617H169.313C169.48 63.793 169.782 63.4183 170.218 63.1378C170.659 62.8537 171.179 62.7117 171.779 62.7117C172.543 62.7117 173.162 62.9549 173.638 63.4414C174.118 63.9244 174.357 64.6097 174.357 65.4975V71H172.093V65.945C172.093 65.4904 171.973 65.1495 171.731 64.9222C171.49 64.695 171.188 64.5813 170.826 64.5813C170.414 64.5813 170.092 64.7127 169.862 64.9755C169.631 65.2347 169.515 65.5774 169.515 66.0036V71H167.315V65.897C167.315 65.4957 167.2 65.1761 166.969 64.9382C166.742 64.7003 166.442 64.5813 166.069 64.5813C165.817 64.5813 165.589 64.6453 165.387 64.7731C165.188 64.8974 165.03 65.0732 164.913 65.3004C164.796 65.5242 164.737 65.7869 164.737 66.0888V71H162.468Z" fill="white"/>
<path d="M179.846 71.1598C179.019 71.1598 178.303 70.984 177.7 70.6325C177.1 70.2774 176.636 69.7837 176.309 69.1516C175.983 68.516 175.819 67.7791 175.819 66.9411C175.819 66.0959 175.983 65.3573 176.309 64.7252C176.636 64.0895 177.1 63.5959 177.7 63.2443C178.303 62.8892 179.019 62.7117 179.846 62.7117C180.674 62.7117 181.388 62.8892 181.988 63.2443C182.591 63.5959 183.057 64.0895 183.383 64.7252C183.71 65.3573 183.873 66.0959 183.873 66.9411C183.873 67.7791 183.71 68.516 183.383 69.1516C183.057 69.7837 182.591 70.2774 181.988 70.6325C181.388 70.984 180.674 71.1598 179.846 71.1598ZM179.857 69.402C180.233 69.402 180.548 69.2955 180.8 69.0824C181.052 68.8658 181.242 68.571 181.37 68.1982C181.501 67.8253 181.567 67.4009 181.567 66.9251C181.567 66.4492 181.501 66.0249 181.37 65.652C181.242 65.2791 181.052 64.9844 180.8 64.7678C180.548 64.5511 180.233 64.4428 179.857 64.4428C179.477 64.4428 179.157 64.5511 178.898 64.7678C178.643 64.9844 178.449 65.2791 178.318 65.652C178.19 66.0249 178.126 66.4492 178.126 66.9251C178.126 67.4009 178.19 67.8253 178.318 68.1982C178.449 68.571 178.643 68.8658 178.898 69.0824C179.157 69.2955 179.477 69.402 179.857 69.402Z" fill="white"/>
<path d="M187.618 66.2699V71H185.349V62.8182H187.512V64.2617H187.607C187.789 63.7859 188.092 63.4095 188.518 63.1325C188.944 62.8519 189.461 62.7117 190.068 62.7117C190.637 62.7117 191.132 62.8359 191.555 63.0845C191.977 63.3331 192.306 63.6882 192.54 64.1499C192.774 64.608 192.892 65.1548 192.892 65.7905V71H190.622V66.1953C190.626 65.6946 190.498 65.304 190.239 65.0234C189.98 64.7394 189.623 64.5973 189.168 64.5973C188.863 64.5973 188.593 64.663 188.358 64.7944C188.128 64.9258 187.947 65.1176 187.815 65.3697C187.687 65.6183 187.622 65.9183 187.618 66.2699Z" fill="white"/>
<path d="M198.409 71.1598C197.567 71.1598 196.843 70.9894 196.235 70.6484C195.632 70.304 195.166 69.8175 194.84 69.1889C194.513 68.5568 194.35 67.8093 194.35 66.9464C194.35 66.1048 194.513 65.3661 194.84 64.7305C195.166 64.0948 195.626 63.5994 196.219 63.2443C196.816 62.8892 197.516 62.7117 198.318 62.7117C198.858 62.7117 199.36 62.7987 199.826 62.9727C200.294 63.1431 200.703 63.4006 201.051 63.745C201.402 64.0895 201.676 64.5227 201.871 65.0448C202.066 65.5632 202.164 66.1705 202.164 66.8665V67.4897H195.255V66.0835H200.028C200.028 65.7568 199.957 65.4673 199.815 65.2152C199.673 64.9631 199.476 64.766 199.224 64.6239C198.975 64.4783 198.686 64.4055 198.355 64.4055C198.011 64.4055 197.706 64.4854 197.439 64.6452C197.176 64.8015 196.97 65.0128 196.821 65.2791C196.672 65.5419 196.596 65.8349 196.592 66.158V67.495C196.592 67.8999 196.667 68.2497 196.816 68.5444C196.969 68.8391 197.184 69.0664 197.46 69.2262C197.737 69.386 198.066 69.4659 198.446 69.4659C198.698 69.4659 198.929 69.4304 199.138 69.3594C199.348 69.2884 199.527 69.1818 199.676 69.0398C199.826 68.8977 199.939 68.7237 200.017 68.5178L202.116 68.6563C202.009 69.1605 201.791 69.6009 201.461 69.9773C201.134 70.3501 200.712 70.6413 200.193 70.8509C199.678 71.0568 199.083 71.1598 198.409 71.1598Z" fill="white"/>
<path d="M204.826 74.0682C204.538 74.0682 204.268 74.0451 204.016 73.9989C203.768 73.9563 203.562 73.9013 203.398 73.8338L203.91 72.1399C204.176 72.2216 204.416 72.266 204.629 72.2731C204.846 72.2802 205.032 72.2305 205.188 72.1239C205.348 72.0174 205.478 71.8363 205.577 71.5806L205.71 71.2344L202.775 62.8182H205.162L206.855 68.8267H206.941L208.651 62.8182H211.053L207.873 71.8842C207.72 72.3246 207.512 72.7081 207.25 73.0348C206.99 73.3651 206.662 73.619 206.264 73.7965C205.866 73.9776 205.387 74.0682 204.826 74.0682Z" fill="white"/>
</svg>
